<svg xmlns="http://www.w3.org/2000/svg" xmlns:cc="http://web.resource.org/cc/" xmlns:svg="http://www.w3.org/2000/svg" id="svg1921" width="1052.362" height="744.094" version="1.0"><metadata id="metadata1926"/><g id="layer1"><rect style="opacity:.98098857;color:#000;fill:#cfa;fill-opacity:1;fill-rule:nonzero;stroke:#364854;stroke-width:1.55766392;stroke-linecap:butt;stroke-linejoin:miter;marker:none;marker-start:none;marker-mid:none;marker-end:none;stroke-miterlimit:4;stroke-dasharray:none;stroke-dashoffset:0;stroke-opacity:.46938776;visibility:visible;display:inline;overflow:visible" id="rect2035" width="319.348" height="164.161" x="664.427" y="75.004" rx="5.39" ry="2.64"/><flowRoot id="flowRoot1929" transform="translate(274.7895,-9.030509)" xml:space="preserve" style="font-family:Courier New"><flowRegion id="flowRegion1931"><rect id="rect1933" width="414.778" height="198.367" x="403.492" y="95.313" style="font-family:Courier New"/></flowRegion><flowPara id="flowPara1935" style="font-weight:700">&quot;string&quot;;&quot;string&quot;;&quot;number&quot;;</flowPara><flowPara id="flowPara1937" style="font-weight:700"># FIELD 0 FIELD 1 FIELD 2</flowPara><flowPara id="flowPara1943" style="font-weight:700">&quot;0472826017&quot; ; &quot;0x214365870921&quot; ; &quot;10&quot; ;</flowPara><flowPara id="flowPara1945" style="font-weight:700">&quot;0472826027&quot; ; &quot;0x214365870931&quot; ; &quot;12&quot; ;</flowPara><flowPara id="flowPara1947" style="font-weight:700">&quot;0472826037&quot; ; &quot;0x214365870941&quot; ; &quot;14&quot; ;</flowPara><flowPara id="flowPara1949" style="font-weight:700">&quot;0472826047&quot; ; &quot;0x214365870951&quot; ; &quot;16&quot; ;</flowPara><flowPara id="flowPara1951" style="font-weight:700">&quot;0472826057&quot; ; &quot;0x214365870961&quot; ; &quot;18&quot; ;</flowPara><flowPara id="flowPara1953" style="font-weight:700">&quot;0472826067&quot; ; &quot;0x214365870971&quot; ; &quot;20&quot; ;</flowPara><flowPara id="flowPara1955" style="font-weight:700">&quot;0472826077&quot; ; &quot;0x214365870981&quot; ; &quot;22&quot; ;</flowPara><flowPara id="flowPara1961" style="font-weight:700"/></flowRoot><rect style="opacity:.98098857;color:#000;fill:#fdef81;fill-opacity:1;fill-rule:nonzero;stroke:#364854;stroke-width:2.04023838;stroke-linecap:butt;stroke-linejoin:miter;marker:none;marker-start:none;marker-mid:none;marker-end:none;stroke-miterlimit:4;stroke-dasharray:none;stroke-dashoffset:0;stroke-opacity:.46938776;visibility:visible;display:inline;overflow:visible" id="rect2023" width="612.415" height="248.728" x="19.856" y="75.246" rx="5.39" ry="2.64"/><path style="opacity:.98098857;color:#000;fill:#ffd5d5;fill-opacity:1;fill-rule:nonzero;stroke:#364854;stroke-width:2.04023838;stroke-linecap:butt;stroke-linejoin:miter;marker:none;marker-start:none;marker-mid:none;marker-end:none;stroke-miterlimit:4;stroke-dasharray:none;stroke-dashoffset:0;stroke-opacity:.46938776;visibility:visible;display:inline;overflow:visible" id="path2057" d="M 294.71157 131.67964 A 37.100216 11.495842 0 1 1 220.51114,131.67964 A 37.100216 11.495842 0 1 1 294.71157 131.67964 z" transform="matrix(0.944985,0,0,0.958816,12.08228,4.900565)"/><rect style="opacity:.98098857;color:#000;fill:#cfa;fill-opacity:1;fill-rule:nonzero;stroke:#364854;stroke-width:1.4974941;stroke-linecap:butt;stroke-linejoin:miter;marker:none;marker-start:none;marker-mid:none;marker-end:none;stroke-miterlimit:4;stroke-dasharray:none;stroke-dashoffset:0;stroke-opacity:.46938776;visibility:visible;display:inline;overflow:visible" id="rect2061" width="88.233" height="20.399" x="274.096" y="256.817" rx="5.39" ry="2.64"/><rect style="opacity:.98098857;color:#000;fill:#fdef81;fill-opacity:1;fill-rule:nonzero;stroke:#364854;stroke-width:1.33897865;stroke-linecap:butt;stroke-linejoin:miter;marker:none;marker-start:none;marker-mid:none;marker-end:none;stroke-miterlimit:4;stroke-dasharray:none;stroke-dashoffset:0;stroke-opacity:.46938776;visibility:visible;display:inline;overflow:visible" id="rect2025" width="60.271" height="19.513" x="19.326" y="55.038" rx="5.39" ry="2.64"/><flowRoot id="flowRoot2027" transform="translate(3.13523,2.090153)" xml:space="preserve"><flowRegion id="flowRegion2029"><rect id="rect2031" width="179.753" height="15.676" x="22.992" y="56.434"/></flowRegion><flowPara id="flowPara2033">Scenario</flowPara></flowRoot><rect style="opacity:.98098857;color:#000;fill:#cfa;fill-opacity:1;fill-rule:nonzero;stroke:#364854;stroke-width:2.126158;stroke-linecap:butt;stroke-linejoin:miter;marker:none;marker-start:none;marker-mid:none;marker-end:none;stroke-miterlimit:4;stroke-dasharray:none;stroke-dashoffset:0;stroke-opacity:.46938776;visibility:visible;display:inline;overflow:visible" id="rect2037" width="136.819" height="18.725" x="664.621" y="55.432" rx="5.39" ry="2.64"/><flowRoot id="flowRoot2039" transform="translate(645.0897,1.670361)" xml:space="preserve"><flowRegion id="flowRegion2041"><rect id="rect2043" width="179.753" height="15.676" x="22.992" y="56.434"/></flowRegion><flowPara id="flowPara2045">External-data file (CSV)</flowPara></flowRoot><path style="fill:#000;fill-opacity:1;fill-rule:nonzero;stroke:none;stroke-width:1px;stroke-linecap:butt;stroke-linejoin:miter;stroke-opacity:1" id="path2069" d="M 302.66046,253.02078 C 301.28523,250.10216 299.32658,247.24291 297.62768,244.4222 C 297.59072,243.98537 295.04287,240.42168 294.74513,239.96086 L 307.83893,232.285 C 308.79105,233.80455 309.851,235.25639 310.69528,236.84363 C 312.64214,239.88652 314.7157,242.8441 316.60601,245.91517 L 302.66046,253.02078 z"/><path style="opacity:.98098857;color:#000;fill:#ffd5d5;fill-opacity:1;fill-rule:nonzero;stroke:#364854;stroke-width:2.04023838;stroke-linecap:butt;stroke-linejoin:miter;marker:none;marker-start:none;marker-mid:none;marker-end:none;stroke-miterlimit:4;stroke-dasharray:none;stroke-dashoffset:0;stroke-opacity:.46938776;visibility:visible;display:inline;overflow:visible" id="path2196" d="M 294.71157 131.67964 A 37.100216 11.495842 0 1 1 220.51114,131.67964 A 37.100216 11.495842 0 1 1 294.71157 131.67964 z" transform="matrix(0.377376,0,0,0.923129,23.94562,24.57142)"/><path style="opacity:.98098857;color:#000;fill:#ffd5d5;fill-opacity:1;fill-rule:nonzero;stroke:#364854;stroke-width:2.04023838;stroke-linecap:butt;stroke-linejoin:miter;marker:none;marker-start:none;marker-mid:none;marker-end:none;stroke-miterlimit:4;stroke-dasharray:none;stroke-dashoffset:0;stroke-opacity:.46938776;visibility:visible;display:inline;overflow:visible" id="path2194" d="M 294.71157 131.67964 A 37.100216 11.495842 0 1 1 220.51114,131.67964 A 37.100216 11.495842 0 1 1 294.71157 131.67964 z" transform="matrix(0.399165,0,0,0.790113,79.10825,41.6454)"/><flowRoot id="flowRoot1963" transform="translate(-28.21707,29.26214)" xml:space="preserve"><flowRegion id="flowRegion1965"><rect id="rect1967" width="622.011" height="316.372" x="59.154" y="49.236"/></flowRegion><flowPara id="flowPara1969" style="font-weight:700;font-family:Courier New">&lt;send channel=&quot;channel-1&quot;&gt;</flowPara><flowPara id="flowPara1971" style="font-weight:700;font-family:Courier New">&lt;action&gt;</flowPara><flowPara id="flowPara1973" style="font-weight:700;font-family:Courier New">&lt;set-value name=&quot;uid&quot; format=&quot;$(client-uid-counter)&quot;&gt;&lt;/set-value&gt;</flowPara><flowPara id="flowPara1975" style="font-weight:700;font-family:Courier New">&lt;restore-from-external field=&quot;1&quot; entity=&quot;TC_INVOKE&quot; sub-entity=&quot;operation-data&quot;</flowPara><flowPara id="flowPara1981" style="font-weight:700;font-family:Courier New">begin=&quot;5&quot; end=&quot;11&quot;&gt;&lt;/restore-from-external&gt;</flowPara><flowPara style="font-weight:700;font-family:Courier New" id="flowPara2013">&lt;/action&gt;</flowPara><flowPara id="flowPara1983" style="font-weight:700;font-family:Courier New">&lt;primitive name=&quot;TC_BEGIN&quot;&gt;</flowPara><flowPara id="flowPara1985" style="font-weight:700;font-family:Courier New">&lt;component name=&quot;TC_INVOKE&quot; instance=&quot;InitialDP-data&quot;</flowPara><flowPara id="flowPara1987" style="font-weight:700;font-family:Courier New">class=&quot;2&quot;</flowPara><flowPara id="flowPara1989" style="font-weight:700;font-family:Courier New">timeout=&quot;60000&quot;</flowPara><flowPara id="flowPara1991" style="font-weight:700;font-family:Courier New">operation-code=&quot;0&quot;</flowPara><flowPara id="flowPara1993" style="font-weight:700;font-family:Courier New">invoke-id=&quot;1&quot;</flowPara><flowPara id="flowPara1995" style="font-weight:700;font-family:Courier New">operation-data=&quot;0x3016a00e820c48656c6c6f2c20776f726c64810100820100&quot;&gt;</flowPara><flowPara id="flowPara1997" style="font-weight:700;font-family:Courier New">&lt;/component&gt;</flowPara><flowPara id="flowPara1999" style="font-weight:700;font-family:Courier New">&lt;/primitive&gt;</flowPara><flowPara style="font-weight:700;font-family:Courier New" id="flowPara2019">&lt;/send&gt;</flowPara><flowPara id="flowPara2001" style="font-weight:700;font-family:Courier New"/><flowPara id="flowPara2003" style="font-weight:700;font-family:Courier New"/><flowPara id="flowPara2005" style="font-weight:700;font-family:Courier New"/><flowPara id="flowPara2007" style="font-weight:700;font-family:Courier New"/><flowPara id="flowPara2009" style="font-weight:700;font-family:Courier New"/></flowRoot><path style="fill:#000;fill-opacity:1;fill-rule:nonzero;stroke:none;stroke-width:1px;stroke-linecap:butt;stroke-linejoin:miter;stroke-opacity:1" id="path2071" d="M 304.93021,254.59931 C 305.98699,246.79605 304.30801,252.0551 320.17997,243.13919 C 325.0451,241.87911 329.97147,240.86502 334.86729,239.71999 C 340.42338,238.11255 346.17324,237.38037 351.83465,236.22055 L 339.7897,245.34351 C 334.11062,246.43307 328.38152,247.3141 322.81534,248.91327 C 317.8748,250.03778 312.82931,250.91766 308.08138,252.71641 C 335.38675,236.74265 321.46383,245.00048 318.26655,246.42679 L 304.93021,254.59931 z"/><flowRoot id="flowRoot2092" transform="translate(2,72)" xml:space="preserve"><flowRegion id="flowRegion2094"><rect id="rect2096" width="34.488" height="16.721" x="276.945" y="211.105"/></flowRegion><flowPara id="flowPara2098">5</flowPara></flowRoot><path style="fill:none;fill-opacity:.75;fill-rule:evenodd;stroke:#000;stroke-width:1px;stroke-linecap:butt;stroke-linejoin:miter;stroke-opacity:1" id="path2114" d="M 276.09714,280.40785 C 287.59298,280.40785 288.63806,280.40785 288.63806,280.40785"/><flowRoot id="flowRoot2116" transform="translate(-69.07412,72.2095)" xml:space="preserve"><flowRegion id="flowRegion2118"><rect id="rect2120" width="34.488" height="16.721" x="276.945" y="211.105"/></flowRegion><flowPara id="flowPara2122">0</flowPara></flowRoot><path style="fill:none;fill-opacity:.75;fill-rule:evenodd;stroke:#000;stroke-width:1px;stroke-linecap:butt;stroke-linejoin:miter;stroke-opacity:1" id="path2124" d="M 205.02302,280.61735 C 216.51886,280.61735 217.56394,280.61735 217.56394,280.61735"/><flowRoot id="flowRoot2126" transform="translate(17.15125,72.2095)" xml:space="preserve"><flowRegion id="flowRegion2128"><rect id="rect2130" width="34.488" height="16.721" x="276.945" y="211.105"/></flowRegion><flowPara id="flowPara2132">6</flowPara></flowRoot><path style="fill:none;fill-opacity:.75;fill-rule:evenodd;stroke:#000;stroke-width:1px;stroke-linecap:butt;stroke-linejoin:miter;stroke-opacity:1" id="path2134" d="M 291.24839,280.61735 C 302.74423,280.61735 303.78931,280.61735 303.78931,280.61735"/><flowRoot id="flowRoot2136" transform="translate(31.53681,72.19843)" xml:space="preserve"><flowRegion id="flowRegion2138"><rect id="rect2140" width="34.488" height="16.721" x="276.945" y="211.105"/></flowRegion><flowPara id="flowPara2142">7</flowPara></flowRoot><path style="fill:none;fill-opacity:.75;fill-rule:evenodd;stroke:#000;stroke-width:1px;stroke-linecap:butt;stroke-linejoin:miter;stroke-opacity:1" id="path2144" d="M 305.63395,280.60628 C 317.12979,280.60628 318.17487,280.60628 318.17487,280.60628"/><flowRoot id="flowRoot2146" transform="translate(45.29976,72.02194)" xml:space="preserve"><flowRegion id="flowRegion2148"><rect id="rect2150" width="34.488" height="16.721" x="276.945" y="211.105"/></flowRegion><flowPara id="flowPara2152">8</flowPara></flowRoot><path style="fill:none;fill-opacity:.75;fill-rule:evenodd;stroke:#000;stroke-width:1px;stroke-linecap:butt;stroke-linejoin:miter;stroke-opacity:1" id="path2154" d="M 319.3969,280.42981 C 330.89274,280.42981 331.93782,280.42981 331.93782,280.42981"/><flowRoot id="flowRoot2156" transform="translate(60.1978,71.93401)" xml:space="preserve"><flowRegion id="flowRegion2158"><rect id="rect2160" width="34.488" height="16.721" x="276.945" y="211.105"/></flowRegion><flowPara id="flowPara2162">9</flowPara></flowRoot><path style="fill:none;fill-opacity:.75;fill-rule:evenodd;stroke:#000;stroke-width:1px;stroke-linecap:butt;stroke-linejoin:miter;stroke-opacity:1" id="path2164" d="M 334.29498,280.34187 C 345.79082,280.34187 346.8359,280.34187 346.8359,280.34187"/><flowRoot id="flowRoot2166" transform="translate(74.72666,71.93402)" xml:space="preserve"><flowRegion id="flowRegion2168"><rect id="rect2170" width="34.488" height="16.721" x="276.945" y="211.105"/></flowRegion><flowPara id="flowPara2172">0</flowPara></flowRoot><path style="fill:none;fill-opacity:.75;fill-rule:evenodd;stroke:#000;stroke-width:1px;stroke-linecap:butt;stroke-linejoin:miter;stroke-opacity:1" id="path2174" d="M 348.8238,280.34187 C 360.31964,280.34187 361.36472,280.34187 361.36472,280.34187"/><path style="fill:#000;fill-opacity:1;fill-rule:nonzero;stroke:none;stroke-width:1px;stroke-linecap:butt;stroke-linejoin:miter;stroke-opacity:1" id="path2198" d="M 784.05648,124.372 C 782.18469,124.20446 777.26905,123.42729 774.86464,123.14266 C 753.15602,120.5342 731.35877,118.82599 709.53521,117.55933 C 676.66249,115.72191 643.74321,115.91053 610.84067,116.48967 C 576.11292,117.07779 541.51882,119.97894 507.23467,125.47086 C 476.99971,130.46282 447.8381,139.43286 420.15741,152.47081 C 402.12806,162.04148 385.98156,174.80235 370.19646,187.67053 C 356.95498,198.25857 345.5567,210.80997 334.40523,223.50812 C 329.94713,228.43969 325.70003,233.51761 321.92102,238.98261 C 320.04642,241.50722 318.9376,244.28134 318.08751,247.26093 C 318.00835,247.75176 317.92919,248.24258 317.85003,248.73341 L 306.26279,254.42204 C 306.33423,253.90736 306.40566,253.39269 306.4771,252.87801 C 307.19765,249.68756 308.16632,246.78041 310.17156,244.11388 C 314.13641,238.40009 318.67717,233.18822 323.4476,228.12241 C 334.91311,215.37886 346.39741,202.55208 359.84971,191.83275 C 381.26322,174.43942 403.6476,158.33658 428.3983,145.91464 C 455.97661,133.13079 485.03316,124.45024 515.07696,119.58212 C 549.3879,114.1764 583.99664,111.29661 618.73819,110.72966 C 651.80379,110.10068 684.8836,109.88485 717.92804,111.53053 C 740.2887,112.65012 762.60759,114.32081 784.93393,115.97669 C 788.59852,116.26826 792.99853,115.87318 795.80775,118.38443 L 784.05648,124.372 z"/></g></svg>