<svg xmlns="http://www.w3.org/2000/svg" xmlns:cc="http://web.resource.org/cc/" xmlns:svg="http://www.w3.org/2000/svg" id="svg2" width="1052.362" height="744.094" version="1.0"><metadata id="metadata7"/><g id="layer1"><rect style="opacity:1;color:#000;fill:#fff;fill-opacity:1;fill-rule:evenodd;stroke:#000;stroke-width:.17602472;stroke-linecap:round;stroke-linejoin:miter;marker:none;marker-start:none;marker-mid:none;marker-end:none;stroke-miterlimit:4;stroke-dasharray:none;stroke-dashoffset:0;stroke-opacity:1;visibility:visible;display:inline;overflow:visible" id="rect7537" width="649.829" height="336.689" x="50.093" y="293.941" transform="matrix(0.999988,4.823662e-3,-7.05652e-6,1,0,0)"/><rect style="fill:#fea;fill-opacity:1;fill-rule:evenodd;stroke:#000;stroke-width:.59709513px;stroke-linecap:butt;stroke-linejoin:miter;stroke-opacity:1" id="rect1872" width="579.592" height="239.403" x="110.109" y="334.393"/><path style="fill:none;fill-rule:evenodd;stroke:#000;stroke-width:.85678852px;stroke-linecap:butt;stroke-linejoin:miter;stroke-opacity:1" id="path2786" d="M 109.42839,534.66609 C 688.83816,534.66609 688.83816,534.66609 688.83816,534.66609 L 688.83816,534.66609"/><path style="fill:none;fill-rule:evenodd;stroke:#000;stroke-width:.85678852px;stroke-linecap:butt;stroke-linejoin:miter;stroke-opacity:1" id="path2788" d="M 110.16182,493.62939 C 689.57161,493.62939 689.57161,493.62939 689.57161,493.62939 L 689.57161,493.62939"/><path style="fill:none;fill-rule:evenodd;stroke:#000;stroke-width:.85678852px;stroke-linecap:butt;stroke-linejoin:miter;stroke-opacity:1" id="path2790" d="M 109.42839,454.59448 C 688.83816,454.59448 688.83816,454.59448 688.83816,454.59448 L 688.83816,454.59448"/><path style="fill:none;fill-rule:evenodd;stroke:#000;stroke-width:.85678852px;stroke-linecap:butt;stroke-linejoin:miter;stroke-opacity:1" id="path2792" d="M 109.42839,414.55868 C 688.83816,414.55868 688.83816,414.55868 688.83816,414.55868 L 688.83816,414.55868"/><path style="fill:none;fill-rule:evenodd;stroke:#000;stroke-width:.85678852px;stroke-linecap:butt;stroke-linejoin:miter;stroke-opacity:1" id="path2794" d="M 109.42839,374.52287 C 688.83816,374.52287 688.83816,374.52287 688.83816,374.52287 L 688.83816,374.52287"/><flowRoot id="flowRoot2810" transform="translate(29.96484,-4.063244)" xml:space="preserve"><flowRegion id="flowRegion2812"><rect id="rect2814" width="41.116" height="20.056" x="59.167" y="528.488"/></flowRegion><flowPara id="flowPara2816">20</flowPara></flowRoot><flowRoot id="flowRoot2818" transform="translate(29.96484,-44.06324)" xml:space="preserve"><flowRegion id="flowRegion2820"><rect id="rect2822" width="41.116" height="20.056" x="59.167" y="528.488"/></flowRegion><flowPara id="flowPara2824">40</flowPara></flowRoot><flowRoot id="flowRoot2826" transform="translate(29.96484,-84.06324)" xml:space="preserve"><flowRegion id="flowRegion2828"><rect id="rect2830" width="41.116" height="20.056" x="59.167" y="528.488"/></flowRegion><flowPara id="flowPara2832">60</flowPara></flowRoot><flowRoot id="flowRoot2834" transform="translate(29.96484,-124.0632)" xml:space="preserve"><flowRegion id="flowRegion2836"><rect id="rect2838" width="41.116" height="20.056" x="59.167" y="528.488"/></flowRegion><flowPara id="flowPara2840">80</flowPara></flowRoot><flowRoot id="flowRoot2842" transform="translate(21.96484,-164.0632)" xml:space="preserve"><flowRegion id="flowRegion2844"><rect id="rect2846" width="41.116" height="20.056" x="59.167" y="528.488"/></flowRegion><flowPara id="flowPara2848">100</flowPara></flowRoot><path style="fill:none;fill-rule:evenodd;stroke:#000;stroke-width:1px;stroke-linecap:butt;stroke-linejoin:miter;stroke-opacity:1" id="path2898" d="M 160,564.09448 C 160,584.09448 160,584.09448 160,584.09448"/><path style="fill:none;fill-rule:evenodd;stroke:#000;stroke-width:1px;stroke-linecap:butt;stroke-linejoin:miter;stroke-opacity:1" id="path2900" d="M 210,564.09448 C 210,584.09448 210,584.09448 210,584.09448"/><path style="fill:none;fill-rule:evenodd;stroke:#000;stroke-width:1px;stroke-linecap:butt;stroke-linejoin:miter;stroke-opacity:1" id="path2902" d="M 260,564.09448 C 260,584.09448 260,584.09448 260,584.09448"/><path style="fill:none;fill-rule:evenodd;stroke:#000;stroke-width:1px;stroke-linecap:butt;stroke-linejoin:miter;stroke-opacity:1" id="path2904" d="M 310,564.09448 C 310,584.09448 310,584.09448 310,584.09448"/><path style="fill:none;fill-rule:evenodd;stroke:#000;stroke-width:1px;stroke-linecap:butt;stroke-linejoin:miter;stroke-opacity:1" id="path2906" d="M 360,564.09448 C 360,584.09448 360,584.09448 360,584.09448"/><path style="fill:none;fill-rule:evenodd;stroke:#000;stroke-width:1px;stroke-linecap:butt;stroke-linejoin:miter;stroke-opacity:1" id="path2908" d="M 409.5,564.59448 C 409.5,584.59448 409.5,584.59448 409.5,584.59448"/><path style="fill:none;fill-rule:evenodd;stroke:#000;stroke-width:1px;stroke-linecap:butt;stroke-linejoin:miter;stroke-opacity:1" id="path2910" d="M 459.5,564.59448 C 459.5,584.59448 459.5,584.59448 459.5,584.59448"/><path style="fill:none;fill-rule:evenodd;stroke:#000;stroke-width:1px;stroke-linecap:butt;stroke-linejoin:miter;stroke-opacity:1" id="path2912" d="M 509.5,564.59448 C 509.5,584.59448 509.5,584.59448 509.5,584.59448"/><path style="fill:none;fill-rule:evenodd;stroke:#000;stroke-width:1px;stroke-linecap:butt;stroke-linejoin:miter;stroke-opacity:1" id="path2914" d="M 559.5,564.59448 C 559.5,584.59448 559.5,584.59448 559.5,584.59448"/><path style="fill:none;fill-rule:evenodd;stroke:#000;stroke-width:1px;stroke-linecap:butt;stroke-linejoin:miter;stroke-opacity:1" id="path2916" d="M 609.5,564.59448 C 609.5,584.59448 609.5,584.59448 609.5,584.59448"/><path style="fill:#ff2a2a;fill-rule:evenodd;stroke:#d20000;stroke-width:5.7;stroke-linecap:round;stroke-linejoin:miter;stroke-opacity:1;fill-opacity:1;stroke-miterlimit:4;stroke-dasharray:none" id="path2930" d="M 190,494.09448 C 490,374.09448 490,374.09448 490,374.09448"/><path style="fill:#ff2a2a;fill-rule:evenodd;stroke:#d20000;stroke-width:5.69999981;stroke-linecap:round;stroke-linejoin:miter;stroke-opacity:1;opacity:1;color:#000;fill-opacity:1;marker:none;marker-start:none;marker-mid:none;marker-end:none;stroke-miterlimit:4;stroke-dasharray:none;stroke-dashoffset:0;visibility:visible;display:inline;overflow:visible" id="path2932" d="M 490,374.09448 C 680,374.09448 680,374.09448 680,374.09448"/><path style="fill:#ff2a2a;fill-rule:evenodd;stroke:#d20000;stroke-width:5.69999981;stroke-linecap:round;stroke-linejoin:miter;stroke-opacity:1;opacity:1;color:#000;fill-opacity:1;marker:none;marker-start:none;marker-mid:none;marker-end:none;stroke-miterlimit:4;stroke-dasharray:none;stroke-dashoffset:0;visibility:visible;display:inline;overflow:visible" id="path5592" d="M 190,494.09448 C 150,494.09448 150,494.09448 150,494.09448"/><path style="fill:#ff2a2a;fill-rule:evenodd;stroke:#d20000;stroke-width:5.69999981;stroke-linecap:round;stroke-linejoin:miter;stroke-opacity:1;opacity:1;color:#000;fill-opacity:1;marker:none;marker-start:none;marker-mid:none;marker-end:none;stroke-miterlimit:4;stroke-dasharray:none;stroke-dashoffset:0;visibility:visible;display:inline;overflow:visible" id="path5594" d="M 150,494.09448 C 150,534.09448 150,534.09448 150,534.09448"/><path style="fill:#ff2a2a;fill-rule:evenodd;stroke:#d20000;stroke-width:5.69999981;stroke-linecap:round;stroke-linejoin:miter;stroke-opacity:1;opacity:1;color:#000;fill-opacity:1;marker:none;marker-start:none;marker-mid:none;marker-end:none;stroke-miterlimit:4;stroke-dasharray:none;stroke-dashoffset:0;visibility:visible;display:inline;overflow:visible" id="path5596" d="M 110,534.09448 C 150,534.09448 150,534.09448 150,534.09448"/><path style="fill:none;fill-rule:evenodd;stroke:#000;stroke-width:1px;stroke-linecap:butt;stroke-linejoin:miter;stroke-opacity:1" id="path5598" d="M 659.5,564.59448 C 659.5,584.59448 659.5,584.59448 659.5,584.59448"/><text style="font-size:12px;font-style:normal;font-weight:400;fill:#000;fill-opacity:1;stroke:none;stroke-width:1px;stroke-linecap:butt;stroke-linejoin:miter;stroke-opacity:1;font-family:Bitstream Vera Sans" id="text5604" x="380.035" y="622.512" xml:space="preserve"><tspan id="tspan5606" x="380.035" y="622.512">Time (s)</tspan></text><flowRoot id="flowRoot5608" transform="matrix(0,-1,1,0,-148.5776,632.6062)" xml:space="preserve"><flowRegion id="flowRegion5610"><rect id="rect5612" width="412.16" height="24.068" x="82.231" y="206.581"/></flowRegion><flowPara id="flowPara5614"><flowSpan style="font-weight:700" id="flowSpan9309">S</flowSpan>cenario<flowSpan style="font-weight:700" id="flowSpan9311">A</flowSpan>ttempts<flowSpan style="font-weight:700" id="flowSpan9313">P</flowSpan>er<flowSpan style="font-weight:700" id="flowSpan9315">S</flowSpan>econd</flowPara></flowRoot><flowRoot id="flowRoot5616" transform="translate(96.36523,65.01293)" xml:space="preserve"><flowRegion id="flowRegion5618"><rect id="rect5620" width="41.116" height="20.056" x="59.167" y="528.488"/></flowRegion><flowPara id="flowPara5622">5</flowPara></flowRoot><flowRoot id="flowRoot5624" transform="translate(146.3652,65.01293)" xml:space="preserve"><flowRegion id="flowRegion5626"><rect id="rect5628" width="41.116" height="20.056" x="59.167" y="528.488"/></flowRegion><flowPara id="flowPara5630">10</flowPara></flowRoot><flowRoot id="flowRoot5632" transform="translate(196.3652,65.01293)" xml:space="preserve"><flowRegion id="flowRegion5634"><rect id="rect5636" width="41.116" height="20.056" x="59.167" y="528.488"/></flowRegion><flowPara id="flowPara5638">15</flowPara></flowRoot><flowRoot id="flowRoot5640" transform="translate(246.3652,65.01293)" xml:space="preserve"><flowRegion id="flowRegion5642"><rect id="rect5644" width="41.116" height="20.056" x="59.167" y="528.488"/></flowRegion><flowPara id="flowPara5646">20</flowPara></flowRoot><flowRoot id="flowRoot5648" transform="translate(296.3652,65.01293)" xml:space="preserve"><flowRegion id="flowRegion5650"><rect id="rect5652" width="41.116" height="20.056" x="59.167" y="528.488"/></flowRegion><flowPara id="flowPara5654">25</flowPara></flowRoot><flowRoot id="flowRoot5656" transform="translate(346.3652,65.01293)" xml:space="preserve"><flowRegion id="flowRegion5658"><rect id="rect5660" width="41.116" height="20.056" x="59.167" y="528.488"/></flowRegion><flowPara id="flowPara5662">30</flowPara></flowRoot><flowRoot id="flowRoot5664" transform="translate(396.3652,65.01293)" xml:space="preserve"><flowRegion id="flowRegion5666"><rect id="rect5668" width="41.116" height="20.056" x="59.167" y="528.488"/></flowRegion><flowPara id="flowPara5670">35</flowPara></flowRoot><flowRoot id="flowRoot5672" transform="translate(446.3652,65.01293)" xml:space="preserve"><flowRegion id="flowRegion5674"><rect id="rect5676" width="41.116" height="20.056" x="59.167" y="528.488"/></flowRegion><flowPara id="flowPara5678">40</flowPara></flowRoot><flowRoot id="flowRoot5680" transform="translate(496.3652,65.01293)" xml:space="preserve"><flowRegion id="flowRegion5682"><rect id="rect5684" width="41.116" height="20.056" x="59.167" y="528.488"/></flowRegion><flowPara id="flowPara5686">45</flowPara></flowRoot><flowRoot id="flowRoot5688" transform="translate(546.3652,65.01293)" xml:space="preserve"><flowRegion id="flowRegion5690"><rect id="rect5692" width="41.116" height="20.056" x="59.167" y="528.488"/></flowRegion><flowPara id="flowPara5694">50</flowPara></flowRoot><flowRoot id="flowRoot5696" transform="translate(596.3653,65.01293)" xml:space="preserve"><flowRegion id="flowRegion5698"><rect id="rect5700" width="41.116" height="20.056" x="59.167" y="528.488"/></flowRegion><flowPara id="flowPara5702">55</flowPara></flowRoot><path style="opacity:1;color:#000;fill:#fc0;fill-opacity:1;fill-rule:evenodd;stroke:#0073f5;stroke-width:5.69999981;stroke-linecap:round;stroke-linejoin:miter;marker:none;marker-start:none;marker-mid:none;marker-end:none;stroke-miterlimit:4;stroke-dasharray:none;stroke-dashoffset:0;stroke-opacity:1;visibility:visible;display:inline;overflow:visible" id="path5712" d="M 222.62666,218.61535 L 210.73731,214.08633 L 200.26615,221.31292 L 200.8995,208.60593 L 190.79084,200.8804 L 203.07162,197.55608 L 207.29528,185.55485 L 214.25187,196.20729 L 226.9709,196.51565 L 218.98953,206.42355 L 222.62666,218.61535 z" transform="matrix(0.401855,0,0,0.394796,47.65543,491.9734)"/><path style="opacity:1;color:#000;fill:#fc0;fill-opacity:1;fill-rule:evenodd;stroke:#0073f5;stroke-width:5.69999981;stroke-linecap:round;stroke-linejoin:miter;marker:none;marker-start:none;marker-mid:none;marker-end:none;stroke-miterlimit:4;stroke-dasharray:none;stroke-dashoffset:0;stroke-opacity:1;visibility:visible;display:inline;overflow:visible" id="path6599" d="M 222.62666,218.61535 L 210.73731,214.08633 L 200.26615,221.31292 L 200.8995,208.60593 L 190.79084,200.8804 L 203.07162,197.55608 L 207.29528,185.55485 L 214.25187,196.20729 L 226.9709,196.51565 L 218.98953,206.42355 L 222.62666,218.61535 z" transform="matrix(0.401855,0,0,0.394796,67.65543,491.9734)"/><path style="opacity:1;color:#000;fill:#fc0;fill-opacity:1;fill-rule:evenodd;stroke:#0073f5;stroke-width:5.69999981;stroke-linecap:round;stroke-linejoin:miter;marker:none;marker-start:none;marker-mid:none;marker-end:none;stroke-miterlimit:4;stroke-dasharray:none;stroke-dashoffset:0;stroke-opacity:1;visibility:visible;display:inline;overflow:visible" id="path6601" d="M 222.62666,218.61535 L 210.73731,214.08633 L 200.26615,221.31292 L 200.8995,208.60593 L 190.79084,200.8804 L 203.07162,197.55608 L 207.29528,185.55485 L 214.25187,196.20729 L 226.9709,196.51565 L 218.98953,206.42355 L 222.62666,218.61535 z" transform="matrix(0.401855,0,0,0.394796,87.65543,491.9734)"/><path style="opacity:1;color:#000;fill:#fc0;fill-opacity:1;fill-rule:evenodd;stroke:#0073f5;stroke-width:5.69999981;stroke-linecap:round;stroke-linejoin:miter;marker:none;marker-start:none;marker-mid:none;marker-end:none;stroke-miterlimit:4;stroke-dasharray:none;stroke-dashoffset:0;stroke-opacity:1;visibility:visible;display:inline;overflow:visible" id="path6603" d="M 222.62666,218.61535 L 210.73731,214.08633 L 200.26615,221.31292 L 200.8995,208.60593 L 190.79084,200.8804 L 203.07162,197.55608 L 207.29528,185.55485 L 214.25187,196.20729 L 226.9709,196.51565 L 218.98953,206.42355 L 222.62666,218.61535 z" transform="matrix(0.401855,0,0,0.394796,107.6554,491.9734)"/><path style="opacity:1;color:#000;fill:#fc0;fill-opacity:1;fill-rule:evenodd;stroke:#0073f5;stroke-width:5.69999981;stroke-linecap:round;stroke-linejoin:miter;marker:none;marker-start:none;marker-mid:none;marker-end:none;stroke-miterlimit:4;stroke-dasharray:none;stroke-dashoffset:0;stroke-opacity:1;visibility:visible;display:inline;overflow:visible" id="path6605" d="M 222.62666,218.61535 L 210.73731,214.08633 L 200.26615,221.31292 L 200.8995,208.60593 L 190.79084,200.8804 L 203.07162,197.55608 L 207.29528,185.55485 L 214.25187,196.20729 L 226.9709,196.51565 L 218.98953,206.42355 L 222.62666,218.61535 z" transform="matrix(0.401855,0,0,0.394796,207.6554,491.9734)"/><path style="opacity:1;color:#000;fill:#fc0;fill-opacity:1;fill-rule:evenodd;stroke:#0073f5;stroke-width:5.69999981;stroke-linecap:round;stroke-linejoin:miter;marker:none;marker-start:none;marker-mid:none;marker-end:none;stroke-miterlimit:4;stroke-dasharray:none;stroke-dashoffset:0;stroke-opacity:1;visibility:visible;display:inline;overflow:visible" id="path6607" d="M 222.62666,218.61535 L 210.73731,214.08633 L 200.26615,221.31292 L 200.8995,208.60593 L 190.79084,200.8804 L 203.07162,197.55608 L 207.29528,185.55485 L 214.25187,196.20729 L 226.9709,196.51565 L 218.98953,206.42355 L 222.62666,218.61535 z" transform="matrix(0.401855,0,0,0.394796,307.6554,491.9734)"/><path style="opacity:1;color:#000;fill:#fc0;fill-opacity:1;fill-rule:evenodd;stroke:#0073f5;stroke-width:5.69999981;stroke-linecap:round;stroke-linejoin:miter;marker:none;marker-start:none;marker-mid:none;marker-end:none;stroke-miterlimit:4;stroke-dasharray:none;stroke-dashoffset:0;stroke-opacity:1;visibility:visible;display:inline;overflow:visible" id="path6609" d="M 222.62666,218.61535 L 210.73731,214.08633 L 200.26615,221.31292 L 200.8995,208.60593 L 190.79084,200.8804 L 203.07162,197.55608 L 207.29528,185.55485 L 214.25187,196.20729 L 226.9709,196.51565 L 218.98953,206.42355 L 222.62666,218.61535 z" transform="matrix(0.401855,0,0,0.394796,407.6554,491.9734)"/><g id="g7514" transform="translate(-170.6914,-93.61245)"><path id="path6611" d="M 222.62666,218.61535 L 210.73731,214.08633 L 200.26615,221.31292 L 200.8995,208.60593 L 190.79084,200.8804 L 203.07162,197.55608 L 207.29528,185.55485 L 214.25187,196.20729 L 226.9709,196.51565 L 218.98953,206.42355 L 222.62666,218.61535 z" transform="matrix(0.401855,0,0,0.394796,644.4649,365.5858)" style="opacity:1;color:#000;fill:#fc0;fill-opacity:1;fill-rule:evenodd;stroke:#0073f5;stroke-width:5.69999981;stroke-linecap:round;stroke-linejoin:miter;marker:none;marker-start:none;marker-mid:none;marker-end:none;stroke-miterlimit:4;stroke-dasharray:none;stroke-dashoffset:0;stroke-opacity:1;visibility:visible;display:inline;overflow:visible"/><text id="text6613" x="748.822" y="451.598" xml:space="preserve" style="font-size:12px;font-style:normal;font-weight:400;fill:#000;fill-opacity:1;stroke:none;stroke-width:1px;stroke-linecap:butt;stroke-linejoin:miter;stroke-opacity:1;font-family:Bitstream Vera Sans"><tspan id="tspan6615" x="748.822" y="451.598">Dump counters</tspan></text></g><flowRoot id="flowRoot11115" transform="translate(83.73535,-4.212905)" xml:space="preserve" style="font-size:14px"><flowRegion id="flowRegion11117"><rect id="rect11119" width="564.589" height="20.056" x="123.347" y="307.867" style="font-size:14px"/></flowRegion><flowPara id="flowPara11121">Seagull - Traffic Profile example using remote control</flowPara></flowRoot></g></svg>